# ProBuilder 5.0.6
# https://unity3d.com/unity/features/worldbuilding/probuilder
# 11/16/2022 8:21:15 PM

mtllib ./Cube_(1).mtl
o Cube (1)

g Cube (1)
v 0 0 0.7059927
v -4.433487 0 0.7059927
v 0 0.2968514 0.7059927
v -4.433487 0.2968514 0.7059927
v -4.433487 0 9.536743E-07
v 0 0 9.536743E-07
v -4.433487 0.2968514 9.536743E-07
v 0 0.2968514 9.536743E-07
v -4.433487 0 0.1764989
v -4.433487 0 0.08824992
v -4.433487 0.2968514 0.08824992
v -4.433493 0.2710736 0.1764867
v -1.662226E-06 0.2710736 0.1764867
v 0 0.2968514 0.08824992
v 0 0 0.08824992
v 0 0 0.1764989
v -4.433487 0 0.6177437
v -4.433493 0.2710736 0.6177329
v -4.433487 0 0.5294948
v -4.433493 0.2710736 0.5294837
v -1.662226E-06 0.2710736 0.6177329
v 0 0 0.6177437
v -1.662226E-06 0.2710736 0.5294837
v 0 0 0.5294948
v -4.433487 0 0.4412458
v -4.433493 0.2966311 0.4412344
v -4.433487 0 0.3529968
v -4.433493 0.2966311 0.3529852
v -1.662226E-06 0.2966311 0.4412344
v 0 0 0.4412458
v -1.662226E-06 0.2966311 0.3529852
v 0 0 0.3529968
v -4.433487 0 0.2647479
v -4.433493 0.2710736 0.264736
v -1.662226E-06 0.2710736 0.264736
v 0 0 0.2647479

vt 0 0
vt -4.433487 0
vt 0 0.2968514
vt -4.433487 0.2968514
vt 4.433487 0
vt 4.433487 0.2968514
vt 0.1764989 6.817347E-05
vt 0.08824992 6.817347E-05
vt 0.08824992 0.2969196
vt 0.1764867 0.2711418
vt -0.1764867 0.2710736
vt -0.08824992 0.2968514
vt -0.08824992 9.553258E-14
vt -0.1764989 1.910641E-13
vt 0 0.08824737
vt 4.433487 0.08824737
vt 1.662226E-06 0.1764844
vt 4.433493 0.1764844
vt -4.433487 0.08824992
vt -4.433487 0.1764989
vt 0.7059927 6.817347E-05
vt 0.6177437 6.817347E-05
vt 0.6177329 0.2711418
vt 0.7059927 0.2969196
vt 0.5294948 6.817347E-05
vt 0.5294837 0.2711418
vt -0.7059927 0.2968514
vt -0.6177329 0.2710736
vt -0.6177437 6.687219E-13
vt -0.7059927 7.642535E-13
vt -0.5294837 0.2710736
vt -0.5294948 5.731904E-13
vt 4.433493 0.5294814
vt 1.662226E-06 0.5294814
vt 1.662226E-06 0.6177306
vt 4.433493 0.6177306
vt 0 0.7059901
vt 4.433487 0.7059901
vt -4.433487 0.5294948
vt -4.433487 0.6177437
vt -4.433487 0.7059927
vt 0.4412458 6.817347E-05
vt 0.4412344 0.2966993
vt 0.3529968 6.817347E-05
vt 0.3529852 0.2966993
vt -0.4412344 0.2966311
vt -0.4412458 4.776588E-13
vt -0.3529852 0.2966311
vt -0.3529968 3.821272E-13
vt 4.433493 0.3529827
vt 1.662226E-06 0.3529827
vt 1.662226E-06 0.4412319
vt 4.433493 0.4412319
vt -4.433487 0.3529968
vt -4.433487 0.4412458
vt 0.2647479 6.817347E-05
vt 0.264736 0.2711418
vt -0.264736 0.2710736
vt -0.2647479 2.865957E-13
vt 1.662226E-06 0.2647336
vt 4.433493 0.2647336
vt -4.433487 0.2647479

vn 0 0 1
vn 0 0 -1
vn -1 -2.110883E-05 0
vn 1 3.066006E-06 9.41912E-06
vn 0 1 0
vn 0 0.9598769 0.2804218
vn 0 -1 0
vn 0 0.9598966 -0.2803545
vn 0 0.9605303 0.2781754
vn 0 0.9605303 -0.2781754

usemtl Mat_Metal
f 3/3/1 4/4/1 2/2/1 1/1/1
f 7/6/2 8/3/2 6/1/2 5/5/2
f 12/10/3 11/9/3 10/8/3 9/7/3
f 11/9/3 7/3/3 5/1/3 10/8/3
f 16/14/4 15/13/4 14/12/4 13/11/4
f 15/13/4 6/1/4 8/3/4 14/12/4
f 11/16/5 14/15/5 8/1/5 7/5/5
f 12/18/6 13/17/6 14/15/6 11/16/6
f 5/2/7 6/1/7 15/15/7 10/19/7
f 10/19/7 15/15/7 16/17/7 9/20/7
f 4/24/3 18/23/3 17/22/3 2/21/3
f 18/23/3 20/26/3 19/25/3 17/22/3
f 22/29/4 24/32/4 23/31/4 21/28/4
f 18/36/5 21/35/5 23/34/5 20/33/5
f 4/38/8 3/37/8 21/35/8 18/36/8
f 19/39/7 24/34/7 22/35/7 17/40/7
f 17/40/7 22/35/7 1/37/7 2/41/7
f 20/26/3 26/43/3 25/42/3 19/25/3
f 26/43/3 28/45/3 27/44/3 25/42/3
f 24/32/4 30/47/4 29/46/4 23/31/4
f 30/47/4 32/49/4 31/48/4 29/46/4
f 26/53/5 29/52/5 31/51/5 28/50/5
f 20/33/9 23/34/9 29/52/9 26/53/9
f 27/54/7 32/51/7 30/52/7 25/55/7
f 25/55/7 30/52/7 24/34/7 19/39/7
f 28/45/3 34/57/3 33/56/3 27/44/3
f 34/57/3 12/10/3 9/7/3 33/56/3
f 32/49/4 36/59/4 35/58/4 31/48/4
f 36/59/4 16/14/4 13/11/4 35/58/4
f 34/61/5 35/60/5 13/17/5 12/18/5
f 28/50/10 31/51/10 35/60/10 34/61/10
f 9/20/7 16/17/7 36/60/7 33/62/7
f 33/62/7 36/60/7 32/51/7 27/54/7

usemtl Mat_Metal
f 1/30/4 22/29/4 21/28/4 3/27/4

